<?xml version="1.0" encoding="UTF-8"?>
<!-- 小趴菜主 Logo（白菜吉祥物，扁平风）· 项目品牌资产 · Codex@50.20 2026-08-10 -->
<svg xmlns="http://www.w3.org/2000/svg" width="512" height="512" viewBox="0 0 512 512">
  <!-- 外圈叶片（深绿，6 瓣） -->
  <g fill="#2E7D32">
    <ellipse cx="256" cy="132" rx="88" ry="116" transform="rotate(0 256 256)"/>
    <ellipse cx="256" cy="132" rx="88" ry="116" transform="rotate(60 256 256)"/>
    <ellipse cx="256" cy="132" rx="88" ry="116" transform="rotate(120 256 256)"/>
    <ellipse cx="256" cy="132" rx="88" ry="116" transform="rotate(180 256 256)"/>
    <ellipse cx="256" cy="132" rx="88" ry="116" transform="rotate(240 256 256)"/>
    <ellipse cx="256" cy="132" rx="88" ry="116" transform="rotate(300 256 256)"/>
  </g>
  <!-- 中圈叶片（中绿，6 瓣，偏移 30°） -->
  <g fill="#388E3C">
    <ellipse cx="256" cy="150" rx="70" ry="94" transform="rotate(30 256 256)"/>
    <ellipse cx="256" cy="150" rx="70" ry="94" transform="rotate(90 256 256)"/>
    <ellipse cx="256" cy="150" rx="70" ry="94" transform="rotate(150 256 256)"/>
    <ellipse cx="256" cy="150" rx="70" ry="94" transform="rotate(210 256 256)"/>
    <ellipse cx="256" cy="150" rx="70" ry="94" transform="rotate(270 256 256)"/>
    <ellipse cx="256" cy="150" rx="70" ry="94" transform="rotate(330 256 256)"/>
  </g>
  <!-- 菜头主体 -->
  <circle cx="256" cy="280" r="152" fill="#66BB6A"/>
  <!-- 菜头高光 -->
  <circle cx="214" cy="216" r="54" fill="#A5D6A7" opacity="0.55"/>
  <!-- 菜叶折痕（顶部两条弧线） -->
  <g fill="none" stroke="#2E7D32" stroke-width="12" stroke-linecap="round">
    <path d="M150,214 Q256,118 362,214"/>
    <path d="M184,168 Q256,86 328,168"/>
  </g>
  <!-- 脸颊 -->
  <circle cx="158" cy="336" r="24" fill="#FF8A80" opacity="0.6"/>
  <circle cx="354" cy="336" r="24" fill="#FF8A80" opacity="0.6"/>
  <!-- 眼睛 -->
  <circle cx="198" cy="296" r="17" fill="#1B5E20"/>
  <circle cx="314" cy="296" r="17" fill="#1B5E20"/>
  <!-- 眼睛高光 -->
  <circle cx="203" cy="291" r="5.5" fill="#FFFFFF"/>
  <circle cx="319" cy="291" r="5.5" fill="#FFFFFF"/>
  <!-- 微笑 -->
  <path d="M224,342 Q256,376 288,342" fill="none" stroke="#1B5E20" stroke-width="11" stroke-linecap="round"/>
  <!-- 顶部嫩芽 -->
  <path d="M244,118 C244,92 268,76 268,58 C284,72 288,96 276,116 C268,112 252,112 244,118 Z" fill="#81C784"/>
</svg>
